<svg xmlns="http://www.w3.org/2000/svg" xmlns:xlink="http://www.w3.org/1999/xlink" width="500" zoomAndPan="magnify" viewBox="0 0 375 374.999991" height="500" preserveAspectRatio="xMidYMid meet" version="1.2"><g id="e098ac2472"><rect x="0" width="375" y="0" height="374.999991" style="fill:#ffffff;fill-opacity:1;stroke:none;"/><rect x="0" width="375" y="0" height="374.999991" style="fill:#ffffff;fill-opacity:1;stroke:none;"/><path style=" stroke:none;fill-rule:nonzero;fill:#8eecf5;fill-opacity:1;" d="M 138.074219 47.71875 C 132.777344 7.082031 81.957031 4.835938 75.765625 26.527344 L 66.460938 66.828125 L 26.160156 76.132812 C 4.46875 82.324219 6.722656 133.148438 47.351562 138.441406 L 77.808594 142.421875 C 118.4375 147.71875 147.347656 118.816406 142.042969 78.1875 Z M 327.484375 237.113281 C 368.117188 242.410156 370.359375 293.25 348.679688 299.433594 L 308.378906 308.738281 L 299.0625 349.046875 C 292.878906 370.726562 242.050781 368.472656 236.753906 327.84375 L 232.785156 297.378906 C 227.488281 256.75 256.390625 227.839844 297.019531 233.144531 Z M 327.484375 237.113281 "/><path style=" stroke:none;fill-rule:nonzero;fill:#90dbf4;fill-opacity:1;" d="M 309.523438 234.769531 L 297.019531 233.132812 C 256.390625 227.839844 227.480469 256.738281 232.785156 297.367188 L 233.652344 304.019531 C 249.828125 301.347656 268.058594 291.695312 283.65625 276.097656 C 296.519531 263.25 305.316406 248.59375 309.523438 234.769531 Z M 74.328125 141.964844 L 77.808594 142.421875 C 118.4375 147.71875 147.347656 118.816406 142.042969 78.1875 L 140.855469 69.113281 C 127.722656 73.570312 113.960938 82.117188 101.8125 94.273438 C 86.953125 109.121094 77.507812 126.375 74.328125 141.964844 Z M 74.328125 141.964844 "/><path style=" stroke:none;fill-rule:nonzero;fill:#8eecf5;fill-opacity:1;" d="M 298.953125 185.195312 C 298.953125 186.933594 298.910156 188.671875 298.828125 190.40625 C 298.742188 192.144531 298.613281 193.875 298.441406 195.605469 C 298.273438 197.335938 298.058594 199.0625 297.804688 200.78125 C 297.550781 202.5 297.253906 204.210938 296.914062 205.917969 C 296.574219 207.621094 296.191406 209.316406 295.769531 211.003906 C 295.347656 212.691406 294.886719 214.367188 294.378906 216.027344 C 293.875 217.691406 293.332031 219.34375 292.746094 220.980469 C 292.160156 222.617188 291.535156 224.238281 290.867188 225.84375 C 290.203125 227.449219 289.5 229.039062 288.757812 230.609375 C 288.011719 232.179688 287.230469 233.734375 286.410156 235.265625 C 285.59375 236.800781 284.734375 238.3125 283.84375 239.804688 C 282.949219 241.292969 282.019531 242.761719 281.054688 244.207031 C 280.085938 245.652344 279.085938 247.074219 278.050781 248.46875 C 277.015625 249.867188 275.945312 251.234375 274.84375 252.582031 C 273.742188 253.925781 272.605469 255.238281 271.4375 256.527344 C 270.269531 257.816406 269.074219 259.074219 267.84375 260.304688 C 266.613281 261.53125 265.355469 262.730469 264.066406 263.898438 C 262.777344 265.066406 261.464844 266.203125 260.121094 267.304688 C 258.777344 268.40625 257.40625 269.476562 256.007812 270.511719 C 254.613281 271.546875 253.191406 272.546875 251.746094 273.511719 C 250.300781 274.480469 248.832031 275.410156 247.34375 276.300781 C 245.851562 277.195312 244.339844 278.054688 242.804688 278.871094 C 241.273438 279.691406 239.71875 280.472656 238.148438 281.214844 C 236.578125 281.960938 234.988281 282.664062 233.382812 283.328125 C 231.777344 283.996094 230.15625 284.621094 228.519531 285.207031 C 226.882812 285.792969 225.230469 286.335938 223.570312 286.839844 C 221.90625 287.34375 220.230469 287.808594 218.542969 288.230469 C 216.859375 288.652344 215.160156 289.035156 213.457031 289.375 C 211.75 289.714844 210.039062 290.011719 208.320312 290.265625 C 206.601562 290.519531 204.875 290.734375 203.144531 290.902344 C 201.414062 291.074219 199.683594 291.203125 197.945312 291.285156 C 196.210938 291.371094 194.472656 291.414062 192.734375 291.414062 C 190.996094 291.414062 189.257812 291.371094 187.523438 291.285156 C 185.785156 291.203125 184.054688 291.074219 182.324219 290.902344 C 180.59375 290.734375 178.867188 290.519531 177.148438 290.265625 C 175.429688 290.011719 173.71875 289.714844 172.011719 289.375 C 170.308594 289.035156 168.613281 288.652344 166.925781 288.230469 C 165.238281 287.808594 163.5625 287.34375 161.902344 286.839844 C 160.238281 286.335938 158.585938 285.792969 156.949219 285.207031 C 155.3125 284.621094 153.691406 283.996094 152.085938 283.328125 C 150.480469 282.664062 148.890625 281.960938 147.320312 281.214844 C 145.75 280.472656 144.195312 279.691406 142.664062 278.871094 C 141.128906 278.054688 139.617188 277.195312 138.125 276.300781 C 136.636719 275.410156 135.167969 274.480469 133.722656 273.511719 C 132.277344 272.546875 130.855469 271.546875 129.460938 270.511719 C 128.0625 269.476562 126.691406 268.40625 125.347656 267.304688 C 124.003906 266.199219 122.691406 265.066406 121.402344 263.898438 C 120.113281 262.730469 118.855469 261.53125 117.625 260.304688 C 116.394531 259.074219 115.199219 257.816406 114.03125 256.527344 C 112.863281 255.238281 111.726562 253.925781 110.625 252.582031 C 109.523438 251.234375 108.453125 249.867188 107.417969 248.46875 C 106.382812 247.074219 105.382812 245.652344 104.414062 244.207031 C 103.449219 242.761719 102.519531 241.292969 101.625 239.804688 C 100.734375 238.3125 99.875 236.800781 99.058594 235.265625 C 98.238281 233.734375 97.457031 232.179688 96.710938 230.609375 C 95.96875 229.039062 95.265625 227.449219 94.601562 225.84375 C 93.933594 224.238281 93.308594 222.617188 92.722656 220.980469 C 92.136719 219.34375 91.59375 217.691406 91.089844 216.027344 C 90.582031 214.367188 90.121094 212.691406 89.699219 211.003906 C 89.277344 209.316406 88.894531 207.621094 88.554688 205.917969 C 88.214844 204.210938 87.917969 202.5 87.664062 200.78125 C 87.410156 199.0625 87.195312 197.335938 87.027344 195.605469 C 86.855469 193.875 86.726562 192.144531 86.644531 190.40625 C 86.558594 188.671875 86.515625 186.933594 86.515625 185.195312 C 86.515625 183.457031 86.558594 181.71875 86.644531 179.984375 C 86.726562 178.246094 86.855469 176.511719 87.027344 174.785156 C 87.195312 173.054688 87.410156 171.328125 87.664062 169.609375 C 87.917969 167.890625 88.214844 166.175781 88.554688 164.472656 C 88.894531 162.769531 89.277344 161.070312 89.699219 159.386719 C 90.121094 157.699219 90.582031 156.023438 91.089844 154.359375 C 91.59375 152.699219 92.136719 151.046875 92.722656 149.410156 C 93.308594 147.773438 93.933594 146.152344 94.601562 144.546875 C 95.265625 142.941406 95.96875 141.351562 96.710938 139.78125 C 97.457031 138.207031 98.238281 136.65625 99.058594 135.125 C 99.875 133.589844 100.734375 132.078125 101.625 130.585938 C 102.519531 129.097656 103.449219 127.628906 104.414062 126.183594 C 105.382812 124.738281 106.382812 123.316406 107.417969 121.921875 C 108.453125 120.523438 109.523438 119.152344 110.625 117.808594 C 111.726562 116.464844 112.863281 115.148438 114.03125 113.863281 C 115.199219 112.574219 116.394531 111.316406 117.625 110.085938 C 118.855469 108.855469 120.113281 107.660156 121.402344 106.492188 C 122.691406 105.324219 124.003906 104.1875 125.347656 103.085938 C 126.691406 101.984375 128.0625 100.914062 129.460938 99.878906 C 130.855469 98.84375 132.277344 97.84375 133.722656 96.875 C 135.167969 95.910156 136.636719 94.980469 138.125 94.085938 C 139.617188 93.195312 141.128906 92.335938 142.664062 91.515625 C 144.195312 90.699219 145.75 89.917969 147.320312 89.171875 C 148.890625 88.429688 150.480469 87.726562 152.085938 87.0625 C 153.691406 86.394531 155.3125 85.769531 156.949219 85.183594 C 158.585938 84.597656 160.238281 84.054688 161.902344 83.550781 C 163.5625 83.042969 165.238281 82.582031 166.925781 82.160156 C 168.613281 81.734375 170.308594 81.355469 172.011719 81.015625 C 173.71875 80.675781 175.429688 80.378906 177.148438 80.125 C 178.867188 79.871094 180.59375 79.65625 182.324219 79.488281 C 184.054688 79.316406 185.785156 79.1875 187.523438 79.101562 C 189.257812 79.019531 190.996094 78.976562 192.734375 78.976562 C 194.472656 78.976562 196.210938 79.019531 197.945312 79.101562 C 199.683594 79.1875 201.414062 79.316406 203.144531 79.488281 C 204.875 79.65625 206.601562 79.871094 208.320312 80.125 C 210.039062 80.378906 211.75 80.675781 213.457031 81.015625 C 215.160156 81.355469 216.859375 81.734375 218.542969 82.160156 C 220.230469 82.582031 221.90625 83.042969 223.570312 83.550781 C 225.230469 84.054688 226.882812 84.597656 228.519531 85.183594 C 230.15625 85.769531 231.777344 86.394531 233.382812 87.0625 C 234.988281 87.726562 236.578125 88.429688 238.148438 89.171875 C 239.71875 89.917969 241.273438 90.699219 242.804688 91.515625 C 244.339844 92.335938 245.851562 93.195312 247.34375 94.085938 C 248.832031 94.980469 250.300781 95.910156 251.746094 96.875 C 253.191406 97.84375 254.613281 98.84375 256.007812 99.878906 C 257.40625 100.914062 258.777344 101.984375 260.121094 103.085938 C 261.464844 104.1875 262.777344 105.324219 264.066406 106.492188 C 265.355469 107.660156 266.613281 108.855469 267.84375 110.085938 C 269.074219 111.316406 270.269531 112.574219 271.4375 113.863281 C 272.605469 115.148438 273.742188 116.464844 274.84375 117.808594 C 275.945312 119.152344 277.015625 120.523438 278.050781 121.921875 C 279.085938 123.316406 280.085938 124.738281 281.054688 126.183594 C 282.019531 127.628906 282.949219 129.097656 283.84375 130.585938 C 284.734375 132.078125 285.59375 133.589844 286.410156 135.125 C 287.230469 136.65625 288.011719 138.207031 288.757812 139.78125 C 289.5 141.351562 290.203125 142.941406 290.867188 144.546875 C 291.535156 146.152344 292.160156 147.773438 292.746094 149.410156 C 293.332031 151.046875 293.875 152.699219 294.378906 154.359375 C 294.886719 156.023438 295.347656 157.699219 295.769531 159.386719 C 296.191406 161.070312 296.574219 162.769531 296.914062 164.472656 C 297.253906 166.175781 297.550781 167.890625 297.804688 169.609375 C 298.058594 171.328125 298.273438 173.054688 298.441406 174.785156 C 298.613281 176.511719 298.742188 178.246094 298.828125 179.984375 C 298.910156 181.71875 298.953125 183.457031 298.953125 185.195312 Z M 298.953125 185.195312 "/><path style=" stroke:none;fill-rule:nonzero;fill:#ffffff;fill-opacity:1;" d="M 192.445312 181.972656 C 196.335938 211.324219 186.140625 249.191406 166.585938 272.644531 C 174.964844 275.140625 183.738281 276.445312 192.722656 276.445312 C 200.015625 276.445312 207.15625 275.5 214.066406 273.84375 C 219.679688 248.054688 216.621094 214.734375 192.445312 181.972656 Z M 192.445312 181.972656 C 226.421875 188.304688 254.59375 214.746094 260.050781 246.636719 C 273.273438 232.175781 281.421875 214.214844 283.457031 194.878906 C 264.898438 176.039062 234.570312 162.886719 192.445312 181.972656 Z M 192.445312 181.972656 C 202.90625 159.34375 237.414062 138.710938 270.589844 137.714844 C 266.851562 131.601562 262.453125 125.847656 257.257812 120.652344 C 249.609375 113.003906 240.894531 107.109375 231.617188 102.75 C 207.953125 115.125 187.21875 139.121094 192.445312 181.972656 Z M 192.445312 181.972656 "/><path style=" stroke:none;fill-rule:nonzero;fill:#ffffff;fill-opacity:1;" d="M 192.863281 182.394531 C 164.839844 167.621094 147.21875 132.128906 154.796875 102.300781 C 145.164062 106.691406 136.109375 112.742188 128.199219 120.652344 C 122.585938 126.265625 117.957031 132.488281 114.121094 139.042969 C 126.953125 158.578125 151.558594 177.226562 192.863281 182.394531 Z M 192.027344 182.394531 C 166.394531 197.921875 129.886719 206.238281 102.691406 199.175781 C 105.035156 214.542969 111.285156 229.394531 121.5 242.148438 C 145.175781 235.070312 172.011719 217.1875 192.027344 182.394531 Z M 192.027344 182.394531 "/></g></svg>